# xmcd
#
# Track frame offsets:
#	150
#	23719
#	40026
#	65003
#	103562
#	123241
#	148574
#	167048
#	194222
#	222074
#	243183
#	266262
#
# Disc length: 3852 seconds
#
# Revision: 2
# Processed by: cddbd v1.5.2PL0 Copyright (c) Steve Scherf et al.
# Submitted via: EasyCDDAExtractor 16.0.8.2
#
DISCID=a50f0a0c
DTITLE=Άνευ ερμηνευτού - Jazz collection 05-Louis Bellson
DYEAR=2010
DGENRE=Ξένη jazz
TTITLE0=Charlie's blues
TTITLE1=I 'll remember April
TTITLE2=Buffalo Joe
TTITLE3=Stompin' at the Savoy
TTITLE4=Love for sale
TTITLE5=The man i love
TTITLE6=Basically speaking, Duvivier, that is
TTITLE7=Concerto for drums
TTITLE8=Basie
TTITLE9=Charlie-O
TTITLE10=(All Right) jump It man
TTITLE11=Greetings
EXTD=
EXTT0=
EXTT1=
EXTT2=
EXTT3=
EXTT4=
EXTT5=
EXTT6=
EXTT7=
EXTT8=
EXTT9=
EXTT10=
EXTT11=
PLAYORDER=
